<svg width="30" height="30" viewBox="0 0 30 30" fill="none" xmlns="http://www.w3.org/2000/svg">
<path d="M15.0294 3.12498C14.0575 3.12811 13.3838 3.21373 12.5694 3.35436C10.1644 3.77311 9.72628 4.65248 9.72628 6.27311V8.74998H15.3513V9.99998H9.51253H6.79378C5.14628 9.99998 3.70441 10.7762 3.24753 12.6369C2.73128 14.7725 2.70816 16.11 3.24753 18.34C3.65691 20.0031 4.55878 21.25 6.20691 21.25H8.47691V18.06C8.47691 16.2062 10.1557 14.375 12.0794 14.375H16.6019C18.1788 14.375 19.7269 13.2112 19.7269 11.6394V6.27311C19.7269 4.74873 18.6275 3.60873 17.0907 3.35311C17.1288 3.34936 15.9932 3.12123 15.0294 3.12498ZM11.9144 5.62498C12.4275 5.62498 12.8519 6.04811 12.8519 6.56373C12.8519 7.08436 12.4275 7.49998 11.9144 7.49998C11.3913 7.49998 10.9769 7.08498 10.9769 6.56373C10.9769 6.04998 11.3913 5.62498 11.9144 5.62498Z" fill="#0277BD"/>
<path d="M14.4238 26.875C15.3956 26.8719 16.0694 26.7862 16.8838 26.6456C19.2888 26.2269 19.7269 25.3475 19.7269 23.7269V21.25H14.1019V20H19.9413H22.66C24.3075 20 25.7494 19.2238 26.2063 17.3631C26.7225 15.2275 26.7456 13.89 26.2063 11.66C25.7963 9.99688 24.8944 8.75 23.2463 8.75H20.9763V11.94C20.9763 13.7938 19.2975 15.625 17.3738 15.625H12.8513C11.2744 15.625 9.72626 16.7888 9.72626 18.3606V23.7269C9.72626 25.2513 10.8256 26.3912 12.3625 26.6469C12.3244 26.6506 13.46 26.8787 14.4238 26.875ZM17.5394 24.375C17.0263 24.375 16.6019 23.9519 16.6019 23.4363C16.6019 22.9156 17.0263 22.5 17.5394 22.5C18.0625 22.5 18.4769 22.915 18.4769 23.4363C18.4769 23.95 18.0619 24.375 17.5394 24.375Z" fill="#FFC107"/>
</svg>
